<?xml version="1.0" standalone="no"?>
<!DOCTYPE svg PUBLIC "-//W3C//DTD SVG 20010904//EN"
 "http://www.w3.org/TR/2001/REC-SVG-20010904/DTD/svg10.dtd">
<svg version="1.0" xmlns="http://www.w3.org/2000/svg"
 width="2400.000000pt" height="2400.000000pt" viewBox="0 0 2400.000000 2400.000000"
 preserveAspectRatio="xMidYMid meet">
<metadata>
Created by potrace 1.11, written by Peter Selinger 2001-2013
</metadata>
<g transform="translate(0.000000,2400.000000) scale(0.100000,-0.100000)"
fill="#000000" stroke="none">
<path d="M19338 20595 c-2 -1 -34 -5 -73 -8 -375 -30 -767 -253 -1014 -577
-107 -140 -200 -322 -201 -392 0 -10 -20 -28 -47 -44 -630 -355 -1125 -916
-1552 -1759 -221 -434 -428 -995 -551 -1485 -12 -47 -25 -98 -30 -115 -8 -24
-41 -168 -55 -235 -35 -172 -66 -342 -80 -445 -5 -38 -9 -63 -19 -130 -5 -34
-12 -91 -22 -180 -3 -33 -7 -61 -8 -62 0 -1 -37 -4 -81 -7 -192 -15 -224 -17
-285 -21 -36 -2 -90 -6 -120 -9 -30 -3 -95 -8 -145 -11 -49 -3 -117 -8 -150
-10 -86 -7 -158 -13 -250 -20 -76 -5 -111 -8 -250 -20 -33 -2 -91 -7 -130 -10
-38 -4 -88 -8 -110 -10 -22 -2 -76 -6 -120 -10 -44 -4 -91 -8 -105 -10 -14 -2
-61 -7 -105 -10 -44 -4 -91 -8 -105 -10 -14 -2 -54 -7 -90 -10 -36 -3 -123
-13 -193 -21 -127 -14 -156 -18 -252 -30 -27 -3 -61 -7 -75 -9 -31 -3 -186
-25 -220 -30 -14 -2 -47 -7 -75 -10 -27 -4 -57 -8 -65 -10 -8 -3 -35 -7 -60
-10 -25 -3 -97 -14 -160 -25 -63 -11 -128 -21 -145 -24 -33 -4 -139 -25 -315
-61 -63 -13 -126 -26 -140 -29 -14 -2 -68 -14 -120 -26 -52 -12 -102 -23 -110
-25 -8 -1 -35 -8 -60 -15 -25 -7 -54 -14 -65 -16 -117 -21 -819 -237 -912
-279 -17 -8 -34 -15 -37 -15 -13 0 -298 -115 -426 -172 -108 -48 -393 -191
-484 -242 -54 -31 -100 -56 -103 -56 -9 0 -343 -212 -408 -259 -111 -81 -118
-85 -129 -97 -6 -6 -29 -24 -51 -40 -150 -109 -418 -375 -586 -579 -271 -329
-497 -712 -646 -1096 -33 -85 -66 -172 -72 -194 -7 -22 -15 -47 -18 -55 -4 -8
-7 -17 -7 -20 -2 -5 -46 -173 -66 -250 -12 -43 -36 -171 -44 -225 -3 -22 -8
-56 -11 -75 -26 -165 -35 -411 -22 -620 8 -121 9 -130 34 -280 20 -126 19
-119 47 -229 67 -259 156 -456 308 -685 140 -210 424 -480 658 -626 30 -19 57
-37 60 -40 3 -3 16 -12 30 -20 249 -145 562 -282 845 -369 112 -34 393 -106
449 -115 19 -3 55 -10 78 -15 37 -8 237 -43 318 -56 14 -2 54 -7 90 -10 36 -4
74 -9 85 -11 11 -2 54 -7 95 -10 41 -3 86 -7 100 -10 13 -2 85 -6 160 -10 74
-3 146 -7 159 -9 52 -9 501 -19 791 -19 271 0 536 7 685 19 181 13 273 22 440
41 60 7 197 25 224 29 13 2 45 7 70 11 25 4 55 8 66 10 743 138 1260 323 1809
646 39 23 79 46 90 52 87 48 403 267 546 379 274 215 590 505 708 651 31 39
59 73 62 76 3 3 14 19 26 35 11 17 41 59 66 95 181 261 397 692 568 1135 4 11
18 49 30 85 52 153 103 234 173 274 44 26 36 26 162 2 93 -18 263 -76 374
-128 304 -142 560 -370 723 -643 89 -150 155 -314 175 -440 2 -16 8 -48 13
-70 10 -44 6 -418 -4 -475 -31 -166 -52 -259 -78 -340 -29 -89 -77 -207 -98
-240 -6 -8 -14 -25 -20 -38 -39 -91 -181 -252 -279 -315 -115 -76 -566 -296
-885 -432 -347 -148 -838 -327 -1166 -425 -58 -18 -116 -36 -130 -41 -58 -20
-491 -137 -610 -165 -8 -1 -60 -14 -115 -27 -119 -29 -320 -75 -355 -81 -63
-12 -126 -25 -140 -30 -8 -3 -28 -7 -45 -10 -16 -2 -115 -20 -220 -40 -212
-39 -193 -36 -405 -70 -176 -28 -195 -31 -306 -46 -44 -6 -90 -12 -102 -15
-11 -2 -48 -6 -81 -10 -33 -3 -68 -7 -78 -9 -31 -6 -149 -20 -263 -32 -36 -3
-72 -7 -80 -9 -8 -1 -51 -6 -95 -9 -44 -4 -91 -9 -105 -11 -24 -3 -85 -9 -220
-20 -36 -3 -94 -8 -130 -11 -93 -7 -172 -13 -275 -19 -49 -2 -126 -7 -170 -10
-368 -23 -741 -34 -1195 -36 -295 -1 -708 7 -845 16 -33 2 -123 7 -200 10 -77
4 -158 9 -180 11 -22 2 -76 6 -120 9 -44 4 -102 8 -130 10 -27 3 -81 7 -120
10 -38 4 -81 8 -95 10 -14 2 -54 6 -90 10 -36 3 -99 10 -140 15 -41 5 -96 12
-122 15 -50 5 -83 10 -163 21 -27 4 -59 8 -70 9 -28 4 -177 26 -195 30 -8 2
-37 6 -65 9 -27 4 -57 9 -65 11 -19 5 -77 16 -110 20 -14 2 -50 8 -80 14 -30
7 -66 14 -80 16 -167 31 -357 73 -585 130 -257 64 -230 57 -325 85 -41 12 -84
24 -95 27 -173 45 -590 188 -860 295 -156 62 -178 72 -257 107 -26 11 -50 21
-52 21 -6 0 -209 96 -351 166 -148 73 -375 195 -526 284 -107 63 -524 337
-614 403 -16 12 -65 48 -108 80 -333 248 -537 632 -594 1117 -10 83 -10 393
-1 485 39 365 165 713 358 987 205 290 619 600 1146 858 372 182 698 308 1414
547 637 213 799 272 1031 376 30 14 117 52 194 85 77 33 181 79 230 102 50 23
106 49 125 57 79 36 422 206 510 253 256 137 577 344 767 495 177 141 375 330
500 480 32 38 63 75 68 81 6 6 16 20 23 30 7 11 35 51 63 89 64 88 143 223
204 345 26 52 52 103 57 114 5 10 26 60 45 110 137 354 167 628 109 991 -32
196 -150 485 -281 685 -173 264 -426 514 -715 707 -114 76 -175 111 -309 178
-95 47 -312 135 -334 135 -8 0 -17 3 -21 7 -3 4 -12 8 -20 9 -7 1 -50 13 -97
27 -46 13 -116 32 -155 41 -76 18 -89 20 -174 36 -30 6 -64 12 -75 14 -49 9
-138 22 -210 30 -27 3 -70 8 -95 11 -307 37 -1037 40 -1730 9 -185 -9 -745 -8
-900 0 -159 9 -188 11 -387 31 -231 24 -530 87 -798 170 -200 62 -425 115
-595 141 -25 3 -56 8 -70 11 -72 12 -359 11 -420 -2 -96 -21 -169 -62 -205
-115 -26 -40 -30 -53 -30 -115 0 -82 21 -146 84 -260 63 -114 112 -176 221
-286 282 -283 609 -463 1110 -613 30 -9 64 -18 75 -20 11 -2 65 -15 120 -29
55 -14 114 -28 130 -31 17 -3 41 -7 55 -10 14 -3 36 -8 50 -11 25 -5 311 -53
360 -60 39 -6 106 -15 137 -19 61 -8 199 -27 223 -31 14 -2 50 -7 80 -10 30
-4 64 -8 75 -10 33 -4 128 -16 155 -20 14 -2 45 -6 70 -10 25 -3 56 -8 70 -10
14 -2 45 -7 70 -10 25 -3 56 -8 70 -10 118 -21 286 -41 510 -60 41 -3 91 -8
110 -10 19 -2 74 -7 122 -10 47 -3 94 -7 105 -9 10 -2 54 -7 98 -10 44 -4 91
-9 105 -11 14 -2 50 -6 80 -10 88 -11 121 -15 185 -26 33 -6 70 -12 82 -14
158 -26 427 -96 447 -116 6 -5 20 -9 33 -9 21 0 215 -94 245 -119 7 -6 40 -32
73 -58 171 -137 298 -326 344 -513 23 -96 22 -194 -3 -253 -74 -178 -296 -366
-592 -503 -55 -24 -108 -49 -119 -54 -36 -17 -288 -107 -375 -133 -113 -35
-261 -78 -283 -82 -10 -2 -27 -7 -37 -10 -10 -3 -27 -8 -37 -10 -10 -2 -67
-17 -128 -33 -171 -46 -428 -104 -605 -138 -14 -2 -70 -13 -125 -24 -55 -10
-156 -29 -225 -40 -69 -11 -136 -23 -150 -26 -14 -3 -38 -7 -55 -9 -78 -12
-104 -16 -150 -25 -54 -10 -86 -15 -155 -25 -25 -3 -61 -10 -80 -15 -20 -5
-54 -12 -75 -14 -22 -3 -67 -10 -100 -15 -61 -11 -72 -13 -160 -31 -27 -5 -63
-12 -80 -15 -100 -16 -364 -75 -490 -110 -143 -39 -410 -129 -490 -164 -11 -5
-73 -30 -138 -55 -233 -91 -746 -331 -762 -355 -3 -6 -12 -11 -20 -11 -11 0
-144 -74 -360 -200 -143 -84 -586 -389 -670 -462 -11 -10 -81 -69 -155 -131
-74 -62 -152 -128 -173 -147 -54 -49 -311 -309 -341 -345 -14 -16 -43 -50 -66
-75 -66 -73 -199 -243 -287 -368 -300 -429 -514 -921 -609 -1402 -13 -67 -34
-190 -39 -235 -3 -27 -8 -63 -10 -80 -12 -97 -15 -130 -22 -220 -13 -194 -5
-707 13 -800 2 -11 6 -47 9 -80 5 -49 24 -191 40 -290 8 -52 36 -197 50 -260
8 -38 17 -79 19 -91 19 -98 156 -572 186 -639 5 -11 23 -60 41 -110 86 -242
269 -635 409 -875 90 -154 265 -420 360 -545 166 -220 369 -442 562 -617 44
-40 86 -78 92 -83 102 -93 420 -343 586 -462 154 -110 552 -373 565 -373 2 0
41 -23 87 -51 46 -28 103 -62 128 -75 25 -14 95 -51 155 -85 278 -151 679
-338 975 -454 80 -31 154 -61 165 -66 116 -52 602 -209 885 -285 91 -24 181
-49 200 -54 30 -9 115 -30 535 -130 44 -10 91 -21 105 -24 14 -2 66 -13 115
-25 50 -11 105 -23 124 -26 19 -3 37 -8 40 -10 4 -2 25 -6 47 -9 22 -4 51 -9
64 -12 63 -14 118 -25 150 -30 19 -2 50 -9 70 -14 19 -5 76 -16 125 -24 50 -9
101 -18 114 -21 48 -9 497 -84 541 -90 25 -3 70 -10 100 -15 30 -5 78 -12 105
-15 28 -4 57 -8 65 -10 8 -2 42 -7 75 -10 33 -4 71 -9 85 -11 14 -3 79 -11
145 -19 66 -8 138 -17 160 -20 119 -16 248 -31 345 -40 30 -3 73 -8 95 -10 52
-6 159 -16 210 -20 22 -2 74 -7 115 -10 41 -4 91 -8 110 -10 19 -2 78 -6 130
-10 319 -24 421 -30 635 -40 83 -4 175 -8 205 -10 391 -24 1797 -24 2090 0 25
2 115 7 200 10 85 4 175 8 200 10 25 1 97 6 160 9 63 4 135 9 160 11 25 2 88
7 140 10 52 3 111 8 130 10 19 2 73 7 120 10 47 3 101 8 120 10 19 2 68 7 109
10 41 4 88 8 105 10 17 3 65 7 106 10 41 4 86 8 100 10 14 2 48 6 75 9 151 17
413 47 435 50 14 2 51 7 84 11 32 4 68 8 80 10 11 2 59 9 106 15 47 6 96 13
110 15 14 2 49 7 79 10 30 4 61 8 70 10 9 1 52 8 96 15 44 6 91 13 105 15 305
48 356 57 635 110 291 55 780 176 1075 264 58 18 114 34 125 36 63 15 540 177
745 255 102 38 433 173 510 207 257 115 326 148 555 264 234 118 278 141 397
210 36 22 68 39 71 39 18 0 444 269 681 430 196 133 619 461 742 575 6 5 49
44 95 85 241 215 463 441 674 685 72 83 144 168 160 189 17 21 35 44 41 50 20
21 225 299 273 370 240 357 436 837 527 1286 28 142 38 206 63 390 56 412 45
1006 -25 1415 -8 50 -17 104 -20 120 -15 92 -47 245 -74 350 -17 66 -33 128
-35 139 -14 64 -127 398 -155 461 -5 11 -26 61 -46 110 -127 316 -357 701
-579 970 -154 187 -198 238 -260 304 -97 103 -206 211 -294 290 -40 36 -79 71
-85 76 -25 23 -144 122 -172 142 -16 12 -38 29 -49 38 -11 8 -38 28 -60 45
-22 16 -45 34 -52 40 -66 55 -436 288 -603 379 -103 56 -408 206 -500 246 -41
18 -95 41 -120 52 -25 12 -56 24 -70 28 -14 4 -43 16 -65 25 -287 129 -1074
369 -1519 465 -11 2 -64 14 -116 25 -52 12 -130 28 -172 37 l-77 16 4 46 c2
25 6 93 10 151 3 58 8 116 10 130 2 14 6 54 10 90 5 55 17 132 51 346 7 45 38
167 68 269 126 422 354 712 663 843 172 72 302 92 553 85 295 -9 583 -8 700 1
156 12 171 13 215 19 22 4 65 9 95 12 30 3 66 8 80 10 36 7 78 13 130 20 25 3
56 8 70 10 14 3 39 7 55 9 41 6 224 36 255 42 14 2 40 7 59 10 18 3 43 8 55
10 11 2 41 7 66 10 25 3 47 8 50 9 3 2 24 6 46 9 39 6 62 10 114 21 14 2 37 7
53 10 272 51 642 156 817 232 19 9 49 21 65 28 76 33 166 78 230 114 39 22 77
44 85 48 24 11 151 102 205 147 172 142 277 302 337 511 17 63 22 106 23 200
0 140 -5 177 -40 280 -68 205 -219 392 -435 541 -104 73 -303 156 -403 169
-23 3 -51 8 -62 10 -11 2 -30 4 -41 4 -17 1 -26 14 -44 63 -45 122 -103 213
-199 308 -158 158 -568 389 -956 539 -60 24 -119 47 -130 52 -62 27 -416 133
-511 154 -258 55 -428 84 -586 99 -32 3 -82 9 -111 12 -55 6 -394 14 -399 9z
m-5180 -8838 c-177 -131 -717 -497 -733 -497 -4 0 -19 -9 -34 -19 -50 -36
-294 -157 -381 -189 -75 -28 -231 -71 -315 -86 -160 -31 -260 -47 -333 -56
-48 -6 -105 -13 -127 -16 -101 -12 -166 -15 -385 -19 -175 -3 -255 -1 -312 10
-70 12 -125 32 -116 40 1 1 57 35 122 75 146 87 325 180 471 244 61 26 124 54
142 62 17 8 34 14 38 14 4 0 21 6 38 14 126 57 614 197 842 242 11 2 31 6 45
9 14 3 34 7 45 9 11 3 49 11 85 20 36 8 81 18 100 21 19 3 55 11 80 16 58 13
254 50 340 64 19 3 46 7 60 10 55 10 274 39 320 43 22 1 23 0 8 -11z"/>
</g>
</svg>
